<?xml version="1.0" encoding="UTF-8" standalone="no" ?>
<!DOCTYPE svg PUBLIC "-//W3C//DTD SVG 1.1//EN" "http://www.w3.org/Graphics/SVG/1.1/DTD/svg11.dtd">
<svg xmlns="http://www.w3.org/2000/svg" xmlns:xlink="http://www.w3.org/1999/xlink" version="1.1" width="72.33064" height="72.33066" viewBox="73.19173489084423 79.7933347328015 72.33064 72.33066" xml:space="preserve">
<desc>Created with Fabric.js 5.3.0</desc>
<defs>
</defs>
<g transform="matrix(1 0 0 1 109.3570548908 115.9586647328)" id="28MXJkQGd5kuyeqk94dNu"  >
<path style="stroke: rgb(121,81,79); stroke-width: 0; stroke-dasharray: none; stroke-linecap: butt; stroke-dashoffset: 0; stroke-linejoin: miter; stroke-miterlimit: 4; fill: rgb(255,255,255); fill-rule: nonzero; opacity: 1;"  transform=" translate(-36.16532, -36.16533)" d="M 36.16532 0 C 56.12858 0 72.33064 16.20207 72.33064 36.16533 C 72.33064 56.128589999999996 56.12857 72.33066 36.16532 72.33066 C 16.202060000000003 72.33066 0 56.128589999999996 0 36.16533 C 0 16.20207 16.20207 0 36.16532 0 z M 51.60936 21.82819 C 48.729110000000006 20.48059 45.64941 19.50122 42.42967 18.94355 C 42.03425 19.658459999999998 41.57228 20.62003 41.25377 21.384949999999996 C 37.831100000000006 20.870219999999996 34.439910000000005 20.870219999999996 31.08019 21.384949999999996 C 30.761740000000003 20.620029999999996 30.28928 19.658459999999998 29.890320000000003 18.943549999999995 C 26.6671 19.501219999999996 23.583870000000005 20.484189999999995 20.70362 21.835329999999995 C 14.89413 30.614229999999996 13.319280000000001 39.17506999999999 14.1067 47.61435999999999 C 17.95986 50.49179999999999 21.694029999999998 52.23975999999999 25.36519 53.38357999999999 C 26.27162 52.13606999999999 27.080029999999997 50.809949999999986 27.77646 49.412339999999986 C 26.45009 48.908349999999984 25.17971 48.28638999999998 23.97935 47.56434999999998 C 24.2978 47.32842999999998 24.60929 47.081769999999985 24.91024 46.827969999999986 C 32.231570000000005 50.25233999999999 40.18638 50.25233999999999 47.42024000000001 46.827969999999986 C 47.724720000000005 47.081769999999985 48.03616000000001 47.32841999999999 48.351130000000005 47.56434999999998 C 47.14723000000001 48.289929999999984 45.873380000000004 48.911889999999985 44.54701000000001 49.415939999999985 C 45.24344000000001 50.809949999999986 46.048370000000006 52.139679999999984 46.95828000000001 53.38711999999998 C 50.63297000000001 52.243299999999984 54.370610000000006 50.49539999999998 58.22377000000001 47.614359999999984 C 59.14770000000001 37.831079999999986 56.64543000000001 29.348849999999985 51.60936000000001 21.828199999999985 z M 28.7739 42.42427 C 26.57611 42.42427 24.77374 40.3725 24.77374 37.87395 C 24.77374 35.3754 26.53762 33.32009 28.7739 33.32009 C 31.010240000000003 33.32009 32.81254 35.3718 32.77406 37.87395 C 32.77754 40.3725 31.01024 42.42427 28.773899999999998 42.42427 z M 43.5566 42.42427 C 41.358810000000005 42.42427 39.55644 40.3725 39.55644 37.87395 C 39.55644 35.3754 41.320260000000005 33.32009 43.5566 33.32009 C 45.792880000000004 33.32009 47.595240000000004 35.3718 47.556760000000004 37.87395 C 47.556760000000004 40.3725 45.792880000000004 42.42427 43.5566 42.42427 z" stroke-linecap="round" />
</g>
</svg>