<?xml version="1.0" encoding="UTF-8" standalone="no" ?>
<!DOCTYPE svg PUBLIC "-//W3C//DTD SVG 1.1//EN" "http://www.w3.org/Graphics/SVG/1.1/DTD/svg11.dtd">
<svg xmlns="http://www.w3.org/2000/svg" xmlns:xlink="http://www.w3.org/1999/xlink" version="1.1" width="74.05282" height="74.05282" viewBox="152.52886344640086 116.67888595327577 74.05282 74.05282" xml:space="preserve">
<desc>Created with Fabric.js 5.3.0</desc>
<defs>
</defs>
<g transform="matrix(1 0 0 1 189.5552734464 153.7052959533)" id="tQ4J6Sx6gCHxJTJp72HwJ"  >
<path style="stroke: rgb(199,2,106); stroke-width: 0; stroke-dasharray: none; stroke-linecap: butt; stroke-dashoffset: 0; stroke-linejoin: miter; stroke-miterlimit: 4; fill: rgb(255,255,255); fill-rule: nonzero; opacity: 1;"  transform=" translate(-37.02641, -37.02641)" d="M 37.02641 0 C 57.46499 0 74.05282 16.58783 74.05282 37.02641 C 74.05282 57.46499 57.46499 74.05282 37.02641 74.05282 C 16.587829999999997 74.05282 0 57.46499 0 37.02641 C 0 16.587829999999997 16.58783 0 37.02641 0 z M 37.11553 43.45428 L 29.89098 50.67883 C 28.07295 52.43343 25.19202 52.43343 23.37399 50.67883 C 22.50755 49.81581 22.020509999999998 48.643249999999995 22.020509999999998 47.420339999999996 C 22.020509999999998 46.19743 22.507559999999998 45.02486999999999 23.37399 44.161849999999994 L 30.59854 36.93729999999999 C 31.32867 36.20716999999999 31.32867 35.02338999999999 30.59854 34.29326 C 29.86841 33.563129999999994 28.68463 33.563129999999994 27.9545 34.29326 L 20.72995 41.536429999999996 C 17.70599 44.82792 17.81375 49.917959999999994 20.9743 53.07852 C 24.13486 56.239079999999994 29.224899999999998 56.34684 32.51639 53.322869999999995 L 39.75956 46.098319999999994 C 40.48969 45.36818999999999 40.48969 44.18440999999999 39.75956 43.45428 C 39.02943 42.724149999999995 37.84565 42.724149999999995 37.115520000000004 43.45428 z M 53.09146 20.96136 C 49.830799999999996 17.720959999999998 44.56568 17.720959999999998 41.30502 20.96136 L 34.06185 28.18591 C 33.33172 28.91604 33.33172 30.09982 34.06185 30.82995 C 34.79198 31.56008 35.97576 31.56008 36.70589 30.82995 L 43.93044 23.6054 C 45.74847 21.8508 48.6294 21.8508 50.44743 23.6054 C 51.313869999999994 24.46842 51.800909999999995 25.64098 51.800909999999995 26.863889999999998 C 51.800909999999995 28.086799999999997 51.31385999999999 29.259359999999997 50.44743 30.12238 L 43.222879999999996 37.34693 C 42.87038 37.69655 42.67209999999999 38.17247 42.67209999999999 38.66895 C 42.67209999999999 39.16543 42.87037999999999 39.64135 43.222879999999996 39.990970000000004 C 43.5725 40.34347 44.04841999999999 40.54175000000001 44.5449 40.54175000000001 C 45.04138 40.54175000000001 45.5173 40.34347000000001 45.86692 39.990970000000004 L 53.09147 32.747800000000005 C 56.33187 29.487140000000004 56.33187 24.222020000000008 53.09147 20.961360000000006 z M 31.00818 43.04464 C 31.359569999999998 43.39318 31.835269999999998 43.58748 32.3302 43.58462 C 32.82512 43.58748 33.300819999999995 43.39318 33.65222 43.04464 L 42.81324 33.88362 C 43.54337 33.15349 43.54337 31.96971 42.81324 31.23958 C 42.08311 30.50945 40.89933 30.50945 40.169200000000004 31.23958 L 31.008180000000003 40.4006 C 30.655680000000004 40.75022 30.457400000000003 41.226139999999994 30.457400000000003 41.72262 C 30.457400000000003 42.2191 30.655680000000004 42.69502 31.008180000000003 43.04464 z" stroke-linecap="round" />
</g>
</svg>